<?xml version="1.0" encoding="UTF-8"?>
<!DOCTYPE svg PUBLIC "-//W3C//DTD SVG 1.1//EN" "http://www.w3.org/Graphics/SVG/1.1/DTD/svg11.dtd">
<!-- Creator: CorelDRAW X7 -->
<svg xmlns="http://www.w3.org/2000/svg" xml:space="preserve" width="297mm" height="210mm" version="1.1" style="shape-rendering:geometricPrecision; text-rendering:geometricPrecision; image-rendering:optimizeQuality; fill-rule:evenodd; clip-rule:evenodd"
viewBox="0 0 29700 21000"
 xmlns:xlink="http://www.w3.org/1999/xlink">
 <defs>
  <style type="text/css">
   <![CDATA[
    .fil14 {fill:#01A5A5}
    .fil13 {fill:#1CAEB0}
    .fil4 {fill:#4A2D2A}
    .fil16 {fill:#512C2B}
    .fil10 {fill:#532E2C}
    .fil11 {fill:#633E39}
    .fil9 {fill:#77CAD1}
    .fil15 {fill:#795549}
    .fil18 {fill:#7E807F}
    .fil1 {fill:#88CDD7}
    .fil17 {fill:#896E66}
    .fil12 {fill:#8C6249}
    .fil19 {fill:#A27D6C}
    .fil3 {fill:#BD7740}
    .fil0 {fill:#C0E5E4}
    .fil6 {fill:#F1BC19}
    .fil5 {fill:#F9BE81}
    .fil7 {fill:#FBCD59}
    .fil2 {fill:#FBD9BA}
    .fil8 {fill:#FEFEFE}
   ]]>
  </style>
 </defs>
 <g id="Capa_x0020_1">
  <metadata id="CorelCorpID_0Corel-Layer"/>
  <g id="_2348973143888">
   <path class="fil0" d="M7366 10453c801,-365 1218,840 528,1146 -754,334 -1351,-770 -528,-1146zm15375 -5185c307,622 -158,1077 -610,747 -339,-248 -262,-979 610,-747zm-16262 7839c580,-26 950,219 1109,637 223,581 -165,993 -368,1225 354,759 787,1318 1256,1883 268,323 423,533 748,808 279,237 577,446 880,717 40,-3210 236,-3196 2548,-4025 804,-289 1130,-157 1166,-1067 -336,-151 -680,-475 -879,-746 -542,-740 -141,-727 -633,-1070 -517,-359 -1104,-1980 -196,-2171 87,-101 22,-28 90,-208 -249,-1089 -487,-2750 618,-3532 438,-310 611,-293 1117,-514 1644,-718 1991,-643 3572,259 491,280 894,122 1233,396 200,696 -294,802 -117,1676 142,696 69,1188 -79,1844l95 60c261,154 269,106 387,288 119,185 91,438 40,684 -324,1588 -672,914 -940,1653 -111,308 -108,311 -299,587 -240,346 -593,665 -935,842 9,806 -56,594 1270,1093 2756,1035 2346,630 2533,4337 386,-171 1316,-892 1566,-1189 22,-480 167,-674 676,-637 106,-236 446,-604 619,-865 1726,-2592 2177,-5628 1124,-8608 -2282,-6458 -10523,-8500 -15637,-3608 -1013,968 -1873,2369 -2364,3782 -281,806 -445,1712 -484,2616 -50,1172 148,1804 284,2853z"/>
   <path class="fil1" d="M11890 19311c0,-177 -8,-368 -5,-542l77 -366c88,130 34,-160 84,219 2,19 0,192 0,223 0,185 -2,346 7,531 647,406 2217,607 3091,634 1403,43 2173,-87 3437,-405 1,-228 3,-457 -1,-685 -8,-575 0,-424 165,-517l10 1133 1684 -610c1,-686 -7,-2919 -332,-3335 -272,-350 -2036,-942 -2609,-1110 -343,285 -1552,690 -2128,694 -637,5 -1756,-384 -2131,-695 -667,103 -2022,658 -2419,1004 -485,423 -626,2099 -468,2920 244,256 1108,772 1538,907z"/>
   <path class="fil2" d="M15055 12834l703 1 0 102 -703 0 0 -103zm1487 -1150c-10,11 -26,14 -31,32 -73,292 -2035,546 -2460,-181 386,224 622,321 1167,345 648,29 896,-165 1324,-196zm0 0c1,0 -121,-248 211,-113 -178,193 -65,58 -211,113zm-1470 -688c280,-2 487,-10 743,-112 -74,102 -20,75 -116,153 -70,56 -115,77 -202,94 -332,64 -385,-83 -425,-135zm0 0l-160 -110c341,69 84,-6 160,110zm1483 -1555c-39,-261 -94,-170 -117,-357l373 35c282,701 -252,1106 -527,448l271 -126zm-2431 0l-179 -313c371,-257 569,172 534,565l-308 175 -265 -193 121 -98c118,-119 -8,59 97,-136zm1815 -899c236,-12 438,-54 692,-56 560,-4 504,63 600,141 -171,200 -362,76 -677,86 -536,18 -529,179 -661,-12 -35,-32 -194,-86 46,-159zm-2420 85c331,-187 1099,-238 1386,-3 -195,207 -362,74 -721,90 -365,17 -516,189 -665,-87zm4215 -769c-923,182 -977,463 -2177,211 -867,-182 -1274,-569 -1891,-774 -890,659 -909,2439 -950,3777 -27,878 192,1260 658,1698 222,209 1083,746 1467,903 713,291 1191,-99 1710,-387 2082,-1156 1596,-3083 1183,-5428z"/>
   <path class="fil3" d="M12627 9582l-8 117c189,-405 53,-2032 1047,-2595 877,380 1748,1029 3108,853 460,-60 693,-263 1041,-305 180,777 350,1339 290,2217l171 -280c28,-679 309,-993 174,-1903 -158,-1068 -211,-406 50,-1341 220,-787 -203,-273 -1172,-789 -1965,-1047 -1592,-893 -3495,-240 -2070,709 -1754,2595 -1206,4266z"/>
   <path class="fil4" d="M13239 14480c596,-437 698,40 761,-1096 319,35 786,503 1296,532 514,30 979,-348 1308,-523 175,983 68,723 894,1088 573,168 2337,760 2609,1110 325,416 333,2649 332,3335l-1684 610 -174 69c-1264,318 -2034,448 -3437,405 -874,-27 -2444,-228 -3091,-634l-163 -65c-430,-135 -1294,-651 -1538,-907 -158,-821 -17,-2497 468,-2920 397,-346 1752,-901 2419,-1004zm4495 -6622c413,2345 899,4272 -1183,5428 -519,288 -997,678 -1710,387 -384,-157 -1245,-694 -1467,-903 -466,-438 -685,-820 -658,-1698 41,-1338 60,-3118 950,-3777 617,205 1024,592 1891,774 1200,252 1254,-29 2177,-211zm542 1731c699,-30 633,345 495,886 -147,580 -145,662 -598,935 -185,-182 -79,313 -140,-333 -5,-55 6,-298 6,-377 -1,-256 48,-500 40,-719l26 -112c60,-878 -110,-1440 -290,-2217 -348,42 -581,245 -1041,305 -1360,176 -2231,-473 -3108,-853 -994,563 -858,2190 -1047,2595l41 201 9 175 -62 1367c-388,-193 -434,-167 -599,-641 -375,-1077 -193,-1259 619,-1219 -548,-1671 -864,-3557 1206,-4266 1903,-653 1530,-807 3495,240 969,516 1392,2 1172,789 -261,935 -208,273 -50,1341 135,910 -146,1224 -174,1903zm-6076 -499l42 190 -132 18c-908,191 -321,1812 196,2171 492,343 91,330 633,1070 199,271 543,595 879,746 -36,910 -362,778 -1166,1067 -2312,829 -2508,815 -2548,4025 39,439 539,597 882,782 1336,722 2382,1031 4012,1103 2336,103 3880,-319 5692,-1193l5 -306c-187,-3707 223,-3302 -2533,-4337 -1326,-499 -1261,-287 -1270,-1093 342,-177 695,-496 935,-842 191,-276 188,-279 299,-587 268,-739 616,-65 940,-1653 51,-246 79,-499 -40,-684 -118,-182 -126,-134 -387,-288l-95 -60c148,-656 221,-1148 79,-1844 -177,-874 317,-980 117,-1676 -339,-274 -742,-116 -1233,-396 -1581,-902 -1928,-977 -3572,-259 -506,221 -679,204 -1117,514 -1105,782 -867,2443 -618,3532z"/>
   <path class="fil5" d="M13239 14480c375,311 1494,700 2131,695 576,-4 1785,-409 2128,-694 -826,-365 -719,-105 -894,-1088 -329,175 -794,553 -1308,523 -510,-29 -977,-497 -1296,-532 -63,1136 -165,659 -761,1096z"/>
   <path class="fil6" d="M23801 740c-1305,297 -893,2241 450,1973 1249,-250 877,-2274 -450,-1973z"/>
   <path class="fil7" d="M7220 14969c203,-232 591,-644 368,-1225 -159,-418 -529,-663 -1109,-637 -1449,404 -973,2473 741,1862z"/>
   <path class="fil8" d="M7366 10453c-823,376 -226,1480 528,1146 690,-306 273,-1511 -528,-1146z"/>
   <path class="fil2" d="M12669 10075l-232 -23c24,239 62,240 -30,415 -59,-62 -94,-29 -131,-293 -17,-122 -20,-259 -25,-387l409 113 -41 -201 8 -117c-812,-40 -994,142 -619,1219 165,474 211,448 599,641l62 -1367z"/>
   <path class="fil2" d="M18105 9869l-26 112 482 -107c-11,310 13,496 -155,680 -151,-312 130,-326 -162,-428 -143,150 -115,160 -97,574 10,236 18,473 26,710 453,-273 451,-355 598,-935 138,-541 204,-916 -495,-886l-171 280z"/>
   <path class="fil9" d="M9002 19876c-539,366 1,1092 533,775 463,-276 92,-1199 -533,-775z"/>
   <path class="fil7" d="M22261 17574c141,189 456,505 812,165 339,-325 87,-610 -136,-802 -509,-37 -654,157 -676,637z"/>
   <path class="fil9" d="M24799 3668c-164,109 -383,302 -161,650 114,178 404,267 637,146 524,-271 116,-1192 -476,-796z"/>
   <path class="fil8" d="M22741 5268c-872,-232 -949,499 -610,747 452,330 917,-125 610,-747z"/>
   <path class="fil10" d="M16555 9441l-271 126c275,658 809,253 527,-448l-373 -35c23,187 78,96 117,357z"/>
   <path class="fil11" d="M16542 11684c-428,31 -676,225 -1324,196 -545,-24 -781,-121 -1167,-345 425,727 2387,473 2460,181 5,-18 21,-21 31,-32z"/>
   <path class="fil10" d="M13945 9128l179 313c-105,195 21,17 -97,136l-121 98 265 193 308 -175c35,-393 -163,-822 -534,-565z"/>
   <path class="fil10" d="M13519 8627c149,276 300,104 665,87 359,-16 526,117 721,-90 -287,-235 -1055,-184 -1386,3z"/>
   <path class="fil12" d="M18079 9981c8,219 -41,463 -40,719 0,79 -11,322 -6,377 61,646 -45,151 140,333 -8,-237 -16,-474 -26,-710 -18,-414 -46,-424 97,-574 292,102 11,116 162,428 168,-184 144,-370 155,-680l-482 107z"/>
   <path class="fil10" d="M15939 8542l-46 159c132,191 125,30 661,12 315,-10 506,114 677,-86 -96,-78 -40,-145 -600,-141 -254,2 -456,44 -692,56z"/>
   <path class="fil13" d="M18581 19605l174 -69 -10 -1133c-165,93 -173,-58 -165,517 4,228 2,457 1,685z"/>
   <path class="fil6" d="M22457 1051c-227,584 631,342 330,7 -217,-242 -326,-9 -330,-7z"/>
   <path class="fil12" d="M12669 10075l-9 -175 -409 -113c5,128 8,265 25,387 37,264 72,231 131,293 92,-175 54,-176 30,-415l232 23z"/>
   <path class="fil14" d="M11890 19311l163 65c-9,-185 -7,-346 -7,-531 0,-31 2,-204 0,-223 -50,-379 4,-89 -84,-219l-77 366c-3,174 5,365 5,542z"/>
   <path class="fil15" d="M15072 10996c40,52 93,199 425,135 87,-17 132,-38 202,-94 96,-78 42,-51 116,-153 -256,102 -463,110 -743,112z"/>
   <polygon class="fil16" points="15055,12937 15758,12937 15758,12835 15055,12834 "/>
   <path class="fil17" d="M16542 11684c146,-55 33,80 211,-113 -332,-135 -210,113 -211,113z"/>
   <path class="fil18" d="M12110 9298l132 -18 -42 -190c-68,180 -3,107 -90,208z"/>
   <path class="fil19" d="M15893 8701l46 -159c-240,73 -81,127 -46,159z"/>
   <path class="fil15" d="M15072 10996c-76,-116 181,-41 -160,-110l160 110z"/>
  </g>
 </g>
</svg>
